<svg width="223" height="64" viewBox="0 0 223 64" fill="none" xmlns="http://www.w3.org/2000/svg" role="img" aria-label="Aptly">
  <defs>
    <linearGradient id="aptly-bg" x1="8" y1="4" x2="56" y2="60" gradientUnits="userSpaceOnUse">
      <stop stop-color="#3B9EFF"/>
      <stop offset="1" stop-color="#1E6FE0"/>
    </linearGradient>
  </defs>
  <rect width="64" height="64" rx="15" fill="url(#aptly-bg)"/>
  <path d="M15 45 L32 17 L49 45" stroke="#FFFFFF" stroke-width="6" stroke-linecap="round" stroke-linejoin="round" fill="none"/>
  <path d="M23.5 38 L29.5 44 L41 30" stroke="#FFFFFF" stroke-width="6" stroke-linecap="round" stroke-linejoin="round" fill="none"/>
  <g fill="#15314F" transform="translate(84.00 50.50) scale(0.02643 -0.02643)">
    <path transform="translate(0 0)" d="M336.7646429501474 562.8513327874243H917.4740358740091L922.1338630355895 473.7689495533705H329.46879931539297ZM439.9819243811071 38.77673786878586Q439.9819243811071 21.325640238821507 427.68129074014723 10.662820119410753Q415.3806570991874 0 388.63704811036587 0H75.71630059927702Q49.51311232894659 0 36.75815964117646 10.478711431846023Q24.003206953406334 20.957422863692045 24.003206953406334 38.4085204936564Q24.003206953406334 51.5281887575984 31.60631077736616 60.51941974647343Q39.20941460132599 69.51065073534846 58.25825044885278 78.47263430058956L92.93195027112961 91.28338819369674Q123.02812474220991 104.9629767909646 141.0225567240268 129.94092965312302Q159.0169887058437 154.91888251528144 178.30241924151778 216.63088701292872L504.55645006895065 1225.7912622727454Q517.7583466432989 1267.2423800900578 510.8295561093837 1286.471657909453Q503.90076557546854 1305.700935728848 469.09124010801315 1317.1505732573569Q443.9104245752096 1326.0038292966783 433.59625806473196 1336.432331589982Q423.2820915542543 1346.8608338832855 423.2820915542543 1361.959696881473Q423.2820915542543 1380.1339390426874 436.2668338827789 1390.0669695213437Q449.2515762113035 1400 475.79011479765177 1400H935.362099159509Q962.1970700547099 1400 974.7777024749666 1390.0669695213437Q987.3583348952234 1380.1339390426874 987.3583348952234 1362.3279142566025Q987.3583348952234 1346.2917799539864 977.2551132347435 1335.776443939656Q967.1518915742636 1325.2611079253256 943.8350981809199 1318.2705683745444Q916.6453608125448 1310.9941169843078 911.4853571504354 1297.272722793743Q906.3253534883261 1283.5513286031783 916.4398863315582 1252.0681581161916L1271.1107357256114 180.2541296593845Q1285.1834223642945 135.79330975934863 1303.0564085766673 114.46101743355393Q1320.92939478904 93.12872510775924 1353.0505881868303 84.26992956921458Q1378.8876629322767 74.82396735996008 1387.664472810924 64.89999325200915Q1396.4412826895714 54.97601914405823 1396.4412826895714 38.77673786878586Q1396.4412826895714 21.325640238821507 1383.4924328941852 10.662820119410753Q1370.543583098799 0 1344.0768295787275 0H912.3078812435269Q885.8124945126474 0 873.06207001023 10.662820119410753Q860.3116455078125 21.325640238821507 860.3116455078125 38.77673786878586Q860.3116455078125 53.67053046450019 869.4806599505246 62.93861692212522Q878.6496743932366 72.20670337975025 897.9879389517009 78.47263430058956L956.3208371587098 89.64866741374135Q982.0206423476338 96.97455728054047 982.3941655475646 113.90322300046682Q982.7676887474954 130.83188872039318 970.9034309349954 167.69328560307622L607.452686034143 1287.7601704485714L638.652950104326 1310.4559505693614L290.1896760612726 228.63545990735292Q277.4524169638753 188.30645724758506 278.97029105201364 162.32695808261633Q280.488165140152 136.3474589176476 298.1524278167635 119.61520930938423Q315.81669049337506 102.88295970112085 350.35720862448215 89.55624548718333L403.1397142149508 77.53536299616098Q421.40113551169634 70.99257660657167 430.6915299464017 62.46998126991093Q439.9819243811071 53.94738593325019 439.9819243811071 38.77673786878586Z"/>
    <path transform="translate(1432 0)" d="M424.1880121938884 899.6855894848704V782.9263191185892L433.5607252381742 762.4249586649239V-324.83908768743277Q433.5607252381742 -352.68850000202656 442.0925659108907 -366.2864614278078Q450.6244065836072 -379.88442285358906 468.1720665730536 -384.31896302103996L525.585830129683 -394.59581848978996Q542.8861694335938 -399.81353935971856 550.8543473221362 -408.98435085080564Q558.8225252106786 -418.1551623418927 558.8225252106786 -431.3312726803124Q558.8225252106786 -447.46782526001334 547.4734794795513 -456.91337529569864Q536.124433748424 -466.35892533138394 511.92001705244184 -466.35892533138394H109.10359732061625Q85.50233003869653 -466.35892533138394 74.29171204194427 -456.91337529569864Q63.081094045192 -447.46782526001334 63.081094045192 -431.3312726803124Q63.081094045192 -418.59516478329897 71.00873337872326 -409.50078438036144Q78.93637271225452 -400.4064039774239 96.01206477358937 -394.82046573236585L137.52324741706252 -384.6871803961694Q155.16226931288838 -379.5162054784596 163.64842903241515 -366.2864614278078Q172.13458875194192 -353.056717377156 172.13458875194192 -325.3508751951158V746.1864155940711Q172.13458875194192 768.3887022919953 165.1005388572812 778.2059328891337Q158.0664889626205 788.0231634862721 142.2905876338482 790.3663417473435L84.86653928086162 793.6467913128436Q68.79061154648662 796.9272408783436 61.79318623431027 804.6443475354463Q54.79576092213392 812.361454192549 54.79576092213392 824.3807041794062Q54.79576092213392 838.4180669076741 63.29498328268528 846.3716083150357Q71.79420564323664 854.3251497223973 94.4009351991117 863.459336631L280.7110785394907 931.5673063322902Q312.1256238333881 944.035615131259 332.09527191706 949.0309235192835Q352.06492000073195 954.0262319073081 367.8151424638927 954.0262319073081Q396.42000384256244 954.0262319073081 410.30400801822543 939.1376995462924Q424.1880121938884 924.2491671852767 424.1880121938884 899.6855894848704ZM383.6058504059911 662.6690639294684 345.70983439683914 712.3012899905443Q423.1781531535089 829.1989083588123 521.7585920020938 893.7155816592276Q620.3390308506787 958.2322549596429 740.1494439356029 958.2322549596429Q856.6407291181386 958.2322549596429 947.9432645700872 898.9350133761764Q1039.2458000220358 839.6377717927098 1091.7400820236653 734.577461335808Q1144.2343640252948 629.5171508789062 1144.2343640252948 491.98595493659377Q1144.2343640252948 334.1243896484375 1082.087539723143 218.24874840676785Q1019.9407154209912 102.37310716509819 913.9625845681876 39.24022590741515Q807.984453715384 -23.892655350267887 676.8925270475447 -23.892655350267887Q560.7952355183661 -23.892655350267887 472.60835559107363 29.61791219934821Q384.42147566378117 83.12847974896431 327.91246190294623 186.10250492021441L385.7784740179777 235.3490667641163Q432.7915756441653 154.93735374510288 494.0189312286675 114.61212442629039Q555.2462868131697 74.2868951074779 626.5084699317813 74.2868951074779Q697.0728234089911 74.2868951074779 752.6791540011764 115.15725992433727Q808.2854845933616 156.02762474119663 840.2276649940759 242.22958434931934Q872.1698453947902 328.43154395744205 872.1698453947902 462.8087444752455Q872.1698453947902 589.8548384830356 841.4444842915982 672.1712050028145Q810.7191231884062 754.4875715225935 757.4861137568951 794.9624320156872Q704.2531043253839 835.437292508781 635.758994590491 835.437292508781Q565.6407184153795 835.437292508781 501.78996867872775 792.9724831376225Q437.93921894207597 750.507673766464 383.6058504059911 662.6690639294684Z"/>
    <path transform="translate(2645 0)" d="M126.336630564183 849.9788828529418 72.66794483736157 864.0584186390042Q51.19298544153571 870.7399526387453 42.57206321321428 879.8103458527476Q33.951140984892845 888.8807390667498 33.951140984892845 901.3204146549106Q33.951140984892845 917.9060260467231 45.45081413164735 926.7588293012232Q56.95048727840185 935.6116325557232 75.87445440888405 935.6116325557232H141.54387330263853Q163.36641321331263 935.6116325557232 177.88907270133495 943.4022290296853Q192.41173218935728 951.1928255036473 206.6890851520002 971.9778604283929L321.38191566988826 1128.6443102769554Q338.82600970193744 1151.1325088143349 355.249579731375 1161.6813261006027Q371.6731497608125 1172.2301433868706 388.3033771067858 1172.2301433868706Q406.450450155884 1172.2301433868706 416.5526198912412 1160.7265948802233Q426.65478962659836 1149.223046373576 426.65478962659836 1127.8896554149687V270.23698081448674Q426.65478962659836 198.63985220342875 454.7548749540001 161.56504664197564Q482.8549602814019 124.49024108052254 532.990938141942 124.49024108052254Q567.2069191373885 124.49024108052254 587.197901379317 137.24715424329042Q607.1888836212456 150.0040674060583 619.5248481500894 167.5329493638128Q631.8608126789331 185.0618313215673 643.2697451096028 200.14521692879498Q654.6786775402725 215.22860253602266 670.8937058858573 219.88154742494226Q683.5384518764913 220.8277978748083 691.1425820868462 212.5381354894489Q698.7467122972012 204.2484731040895 698.4204183518887 184.27930134534836Q695.8296436294913 128.60461723804474 661.3022562880069 82.32319422625005Q626.7748689465225 36.041771214455366 566.9048758279532 8.2027850728482Q507.03488270938396 -19.636201068758965 429.2531436830759 -19.636201068758965Q306.4780652113259 -19.636201068758965 236.4928925205022 41.89424040168524Q166.50771982967854 103.42468187212944 166.50771982967854 228.48279506340623V796.553611561656Q166.50771982967854 819.641365416348 157.4709001854062 831.2807202618569Q148.43408054113388 842.9200751073658 126.336630564183 849.9788828529418ZM324.261104401201 851.4680619500577 325.35744727775455 935.6116325557232H648.2641484364867Q668.7626317702234 935.6116325557232 679.9777779523283 927.5674612913281Q691.1929241344333 919.523290026933 691.1929241344333 903.8212776146829Q691.1929241344333 881.4760605357587 668.7849783599377 866.4720612429082Q646.3770325854421 851.4680619500577 597.3253074251115 851.4680619500577Z"/>
    <path transform="translate(3388 0)" d="M447.87018594518304 1429.708505578339V141.51983764395118Q447.87018594518304 113.67042532935739 456.40202661789954 100.25657259114087Q464.93386729061604 86.84271985292435 482.48152728006244 81.67174493521452L524.0991118811071 71.76310684159398Q541.3994511850178 66.24895366281271 549.3676290735602 57.22635832615197Q557.3358069621027 48.203762989491224 557.3358069621027 35.02765265107155Q557.3358069621027 18.8911000713706 545.9867612309754 9.4455500356853Q534.6377154998481 0 510.4332988038659 0H121.97735670208931Q98.37608942016959 0 87.16547142341733 9.4455500356853Q75.95485342666507 18.8911000713706 75.95485342666507 35.02765265107155Q75.95485342666507 47.763760548084974 83.88249276019633 56.858140951022506Q91.81013209372759 65.95252135396004 108.88582415506244 71.5384595990181L151.83270812407136 81.67174493521452Q169.47173001989722 87.21093722805381 177.957889739424 100.25657259114087Q186.44404945895076 113.30220795422792 186.44404945895076 141.00805013626814V1276.2093316875398Q186.44404945895076 1298.411618385464 179.40999956429005 1308.2288489826024Q172.37594966962934 1318.0460795797408 156.60004834085703 1320.3892578408122L99.17599998787045 1323.6697074063122Q83.10007225349545 1326.9501569718122 76.10264694131911 1334.667263628915Q69.10522162914276 1342.3843702860177 69.10522162914276 1354.4036202728748Q69.10522162914276 1368.4409830011427 77.60444398969412 1377.0974778868258Q86.10366635024548 1385.7539727725089 108.71039590612054 1393.950888376683L304.3932522907853 1461.5902224257588Q338.15097584575415 1474.0585312247276 357.8360969647765 1479.0538396127522Q377.5212180837989 1484.0491480007768 391.9659518674016 1484.0491480007768Q420.10217759385705 1484.0491480007768 433.98618176952004 1469.160615639761Q447.87018594518304 1454.2720832787454 447.87018594518304 1429.708505578339Z"/>
    <path transform="translate(3999 0)" d="M667.9173521660268 150.34668395668268 531.0383410528302 -113.73567143827677 135.3098819926381 776.8687141239643Q116.97860707715154 819.7103936709464 96.83926381543279 836.940077567473Q76.69992055371404 854.1697614639997 37.253099109977484 863.8380052447319Q19.318048983812332 869.6066673025489 12.361044390127063 878.1104178484529Q5.404039796441793 886.614168394357 5.404039796441793 900.2157625295222Q5.404039796441793 916.8836794570088 17.50171995908022 926.247656006366Q29.599400121718645 935.6116325557232 50.53242362290621 935.6116325557232H489.9821515865624Q510.9779037833214 935.6116325557232 523.0299029927701 926.3958721607924Q535.0819022022188 917.1801117658615 535.0819022022188 900.4404097720981Q535.0819022022188 886.6038835979998 526.9272043649107 878.0073862709105Q518.7725065276027 869.4108889438212 499.10517827421427 864.742645163089L456.03726633265615 857.2441478744149Q413.17656549438834 848.5339806638658 405.7207437362522 825.5746876243502Q398.26492197811604 802.6153945848346 421.2858717367053 747.10185399279ZM483.6477347500622 -174.1773153245449 554.8391733802855 2.4567973390221596 585.9551052898169 64.54141970351338 850.9735658168793 732.4888410679996Q874.4108757339418 790.6661798320711 866.0022762529552 817.1871546208858Q857.5936767719686 843.7081294097006 811.8861510083079 853.5786738432944L768.5189024731517 862.7963174879551Q749.176639739424 867.536346334964 740.5174137167633 876.8957946989685Q731.8581876941025 886.255243062973 731.8581876941025 900.3686247058213Q731.8581876941025 917.1083266995847 743.955867856741 926.359979627654Q756.0535480193794 935.6116325557232 776.9579383097589 935.6116325557232H1055.675459139049Q1076.8434146791697 935.6116325557232 1088.9313064217567 926.1758709400892Q1101.0191981643438 916.7401093244553 1101.0191981643438 900.0721923969686Q1101.0191981643438 888.201570738107 1093.33313597925 879.3107580263168Q1085.6470737941563 870.4199453145266 1066.4052293375134 863.3367382064462Q1020.2974905669689 850.3802941404283 995.9945109337568 827.3459298573434Q971.6915313005447 804.3115655742586 949.8407993800938 749.0438175536692L584.8735157139599 -158.79959915950894Q534.0066403672099 -284.09269770234823 490.06770878471434 -353.83485780097544Q446.12877720221877 -423.57701789960265 394.9728161878884 -451.16488112322986Q343.816855173558 -478.75274434685707 270.3309087045491 -478.75274434685707Q162.63084941729903 -478.75274434685707 99.75589040108025 -420.72161641716957Q36.88093138486147 -362.69048848748207 36.88093138486147 -278.927020650357Q36.88093138486147 -218.598758880049 66.2855488806963 -184.54062638245523Q95.69016637653112 -150.48249388486147 144.33167750388384 -150.48249388486147Q191.076376657933 -150.48249388486147 216.6907947808504 -179.2087442316115Q242.30521290376782 -207.9349945783615 257.8142468519509 -256.5312238521874L269.3914717696607 -294.5612601265311Q277.14007568359375 -329.14407562091947 294.7087510731071 -347.79641788080335Q312.2774264626205 -366.4487601406872 335.7909137420356 -366.4487601406872Q359.5777396187186 -366.4487601406872 380.92517726682127 -350.5532974097878Q402.2726149149239 -334.6578346788883 427.00341089069843 -292.9525621011853Q451.73420686647296 -251.24728952348232 483.6477347500622 -174.1773153245449Z"/>
  </g>
</svg>
